<?xml version="1.0" standalone="no"?><!DOCTYPE svg PUBLIC "-//W3C//DTD SVG 1.1//EN" "http://www.w3.org/Graphics/SVG/1.1/DTD/svg11.dtd"><svg t="1573010045048" class="icon" viewBox="0 0 1024 1024" version="1.1" xmlns="http://www.w3.org/2000/svg" p-id="2398" xmlns:xlink="http://www.w3.org/1999/xlink" width="200" height="200"><defs><style type="text/css"></style></defs><path d="M510.9 841.1c6 0 11.7-2.7 15.5-7.2 11.2-13.3 273.4-328.1 273.4-482.1 0-159.3-129.6-288.9-288.9-288.9C351.6 62.9 222 192.5 222 351.8c0 153.9 262.2 468.8 273.3 482.1 3.9 4.5 9.6 7.2 15.6 7.2z m0-737.7c137 0 248.4 111.4 248.4 248.4 0 119.3-191.8 366.6-248.4 437-56.6-70.4-248.4-317.7-248.4-437 0.1-137 111.5-248.4 248.4-248.4z m123.7 225.8c0-66.1-53.8-119.9-119.9-119.9-66.1 0-119.9 53.8-119.9 119.9S448.7 449 514.8 449s119.8-53.7 119.8-119.8z m-199.2 0c0-43.8 35.6-79.3 79.4-79.3 43.7 0 79.3 35.6 79.3 79.3s-35.6 79.3-79.3 79.3c-43.8 0-79.4-35.6-79.4-79.3z m212 410.8c-10.9-2.3-21.7 4.9-23.9 15.8-2.2 11 4.9 21.6 15.8 23.9 78.7 15.9 119.9 44 119.9 63.5 0 30.8-96.8 75.5-248.4 75.5-151.6 0-248.4-44.7-248.4-75.5 0-19.8 42-48.1 122.3-64 11-2.2 18.1-12.8 15.9-23.8-2.2-11-12.8-18.1-23.8-16-98.5 19.5-155 57.3-155 103.7 0 76.2 145.3 116 288.9 116 143.6 0 288.9-39.9 288.9-116 0.2-45.9-55.3-83.5-152.2-103.1z" p-id="2399" fill="#ed290f"></path></svg>