<?xml version="1.0" standalone="no"?><!DOCTYPE svg PUBLIC "-//W3C//DTD SVG 1.1//EN" "http://www.w3.org/Graphics/SVG/1.1/DTD/svg11.dtd"><svg t="1573009906285" class="icon" viewBox="0 0 1024 1024" version="1.1" xmlns="http://www.w3.org/2000/svg" p-id="1322" xmlns:xlink="http://www.w3.org/1999/xlink" width="200" height="200"><defs><style type="text/css"></style></defs><path d="M548.6 870c-62.2 0-296-335.3-296-485.2 0-163.3 132.8-296.1 296-296.1s296 132.8 296 296.1c0 149.9-233.9 485.2-296 485.2z m0-732.5c-136.3 0-247.3 110.9-247.3 247.3 0 127.4 197.5 396 247.3 433.8 49.8-37.9 247.3-306.4 247.3-433.8-0.1-136.3-111-247.3-247.3-247.3z" fill="#ed290f" p-id="1323"></path><path d="M551.7 489.1c-68.2 0-123.7-55.5-123.7-123.7s55.5-123.7 123.7-123.7 123.7 55.5 123.7 123.7-55.5 123.7-123.7 123.7z m0-198.7c-41.3 0-74.9 33.6-74.9 74.9s33.6 74.9 74.9 74.9 74.9-33.6 74.9-74.9-33.6-74.9-74.9-74.9z" fill="#ed290f" p-id="1324"></path></svg>